<svg xmlns="http://www.w3.org/2000/svg" viewBox="0 0 4400.1 508.37"><defs><style>.cls-1{fill:#cf2722;}</style></defs><g id="图层_2" data-name="图层 2"><g id="图层_1-2" data-name="图层 1"><path class="cls-1" d="M2027.13,416.06h8.8a75,75,0,0,0,75-75V163.94h-83.77Z"/><path class="cls-1" d="M2069,36.05c-23.29,0-42.18,18.31-42.18,40.9s18.89,40.9,42.18,40.9S2111.2,99.54,2111.2,77,2092.31,36.05,2069,36.05Z"/><path class="cls-1" d="M291.82,35.48H131.57A131.58,131.58,0,0,0,0,167.06V285.55A131.58,131.58,0,0,0,131.57,417.12H291.82A131.57,131.57,0,0,0,423.39,285.55V167.06A131.57,131.57,0,0,0,291.82,35.48Zm47.12,257.14a41.53,41.53,0,0,1-41.53,41.54H126a41.54,41.54,0,0,1-41.53-41.54V152A41.53,41.53,0,0,1,126,110.43H297.41A41.53,41.53,0,0,1,338.94,152Z"/><path class="cls-1" d="M703.44,110.43H466.07a81.15,81.15,0,0,0,81.15,81.15H707.79c20.69,0,38.43,16.18,38.81,36.87A37.56,37.56,0,0,1,709,266.72l-243,.39v233a74.84,74.84,0,0,0,74.84-74.84v-77H705.79a118.91,118.91,0,0,0,118.89-116.6C826,165,770.12,110.43,703.44,110.43Z"/><path class="cls-1" d="M1868.07,36.74H1710v-.69H1626.1V413.33h0A83.87,83.87,0,0,0,1710,329.47V269.9h158.11a116.58,116.58,0,1,0,0-233.16ZM1871.25,190l-161.29.38v-74h161.29a36.83,36.83,0,1,1,0,73.66Z"/><path class="cls-1" d="M1428,115.51c-44.91,0-80.89,20-106.42,47.83V119.77h-96.21V416.64h21.89a74.31,74.31,0,0,0,74.32-74.32V248.85c0-27,21.2-65.63,64.25-65.63,24.75,0,58.63,9.67,64.52,46.28V416.06h93.39V230.2C1543.73,166.86,1511.16,115.51,1428,115.51Z"/><path class="cls-1" d="M1065.18,116.74H989.41c-67.71,0-122.6,47.15-122.6,121.3v28.32h0v37.83c0,71.57,53,111.51,118.34,111.51h92.27c70.83,0,96.26-39.36,104.84-92h-73.48c-6,10.48-16.28,17.86-33.9,17.86H977.59c-35.52,0-41.53-29.86-41.53-55h248.58v-52C1184.64,162.35,1131.16,116.74,1065.18,116.74Zm-88.61,74.1h97.29c22.93,0,41.53,20.36,41.53,45.48H935C935,211.2,953.63,190.84,976.57,190.84Z"/><path class="cls-1" d="M2351.75,116.74H2276c-67.72,0-122.61,47.15-122.61,121.3v28.32h0v37.83c0,71.57,53,111.51,118.34,111.51H2364c70.83,0,96.26-39.36,104.85-92h-73.48c-6,10.48-16.28,17.86-33.9,17.86h-97.3c-35.52,0-41.52-29.86-41.52-55h248.58v-52C2471.22,162.35,2417.73,116.74,2351.75,116.74Zm-88.61,74.1h97.29c22.94,0,41.53,20.36,41.53,45.48H2221.61C2221.61,211.2,2240.21,190.84,2263.14,190.84Z"/><path class="cls-1" d="M2813.8,422.69V321.5l-66.91,22.85V275c20.75-5.46,39.6-11.39,66.91-19.58V167.28h-66.1v-61.2h66.1V6.53h66.91v99.55l57.91.12,0,61.08h-57.94v68.54L2934.57,222v62.83l-53.86,17.14-.26,139.39c0,31.13.26,49.11.26,66.24l-124-35.09V408Z"/><path class="cls-1" d="M3579.21,277.44h-22l-5.07,0h-68.83l7.8-20.42-54.67-18c-4.9,10.61-10.61,22.85-19.59,38.35H3344.2v53h48.14c-4.89,9.79-18,35.09-25.29,48.14,24.48,13.06,49.58,28.79,75.07,44.07-31,22-57.12,29.37-95.47,40.8,1.63,4.89,11.42,32.64,15.92,44.47,71.39-33,74.65-36.31,113.82-61.61,15.84,9.83,40.76,28.8,52.23,37.54l32.64-50.59c-13.88-9-27.75-17.14-42.44-26.93C3546.68,374.69,3569.63,326.05,3579.21,277.44Zm-133.63,86.89L3462,335.38h66.09c-9.83,19.11-20.65,40-37,57.15Z"/><path class="cls-1" d="M3740,337.82c20.4-41.61,43.47-93.78,61.2-170.95l37.54-.41V92.21L3701.61,93c13.87-44.06,15.5-46.51,26.93-93h-67.73c-16.32,62.83-54.67,169.73-101.19,241.54,17.14,10.6,31,18.76,50.6,31.82,10.6-15.5,18.76-30.19,26.92-44.88,10.38,41.51,24.79,89.68,40.64,124.09-28.41,45.88-63.8,77.63-119,102.76,13.87,24.48,15.49,27.59,26.93,48.14,51.34-26.21,85.28-61.85,115.87-102.81,24.58,37.69,65.13,83.41,102.81,106.89,25.3-30.19,34.28-40.8,47.33-61.2C3810.24,423.41,3765.63,380.43,3740,337.82Zm-65.28-170.54,82.42-.2c-12.24,46.51-19.59,72-42.44,120.15C3693.45,239.09,3683.66,211.34,3674.68,167.28Z"/><path class="cls-1" d="M4368.28,17.14l16.32,58.75c-97.92,5.71-155,9-273.36,11.42l-1.15,103.31c-2.93,144.76-3.75,253.28-51.89,317.75-17.95-24.48-35.9-48.15-35.9-48.15,49-65.28,46.51-169.72,47.29-270.42V27.4C4184.68,25.3,4282.6,22,4368.28,17.14Z"/><path class="cls-1" d="M4139.8,507.55c21.12-8,62-17.13,138.72-49.77-4.9-35.91-6.79-44.82-9-61.2L4219,413.71V194.21l13.87-1.63C4258.24,324,4323.4,443.9,4365,488c10.37-18,17.95-32.64,35.08-63.65-40.8-35.9-65.28-72.62-79.15-102.82,37.54-17.95,41.62-17.13,71-31.82l-28.56-60.38c-10.6,4.89-32.64,15.5-72.62,32.64-10.61-20.4-17.95-40.8-26.93-71.81,46.51-4.08,71-7.35,104.45-10.61l-28.56-64.46c-44.88,5.71-142,14.68-199.92,19.58V507.55Z"/><rect class="cls-1" x="3922.74" y="106.9" width="106.9" height="64.46"/><path class="cls-1" d="M3259.34,101.18V36.72l-301.93.82V102H3039c-24.49,115.06-58.76,160.75-138.73,262.75,18,25.3,21.22,31.83,37.54,56.31,14.2-13.66,42.11-53.79,54.67-70.18V491.23l248.07-.41V241.94l-181.15.41a420.38,420.38,0,0,0,46.51-140.76ZM3069.21,328.85l136.27-.41V446.76l-136.27.41Z"/><rect class="cls-1" x="3922.74" y="237.46" width="106.9" height="64.46"/><rect class="cls-1" x="3922.74" y="366.38" width="106.9" height="64.46"/><rect class="cls-1" x="3344.56" y="90.46" width="230.55" height="50"/><rect class="cls-1" x="3434.69" y="0.18" width="50" height="230.55"/><rect class="cls-1" x="3344.19" y="90.46" width="230.55" height="50" transform="translate(931.61 2480.03) rotate(-45)"/><rect class="cls-1" x="3434.46" y="0.18" width="50" height="230.55" transform="translate(931.61 2480.03) rotate(-45)"/></g></g></svg>